<svg width="1200" height="630" viewBox="0 0 1200 630" fill="none" xmlns="http://www.w3.org/2000/svg">
  <!-- Background -->
  <rect width="1200" height="630" fill="#f5f0e8"/>
  
  <!-- Decorative board squares pattern -->
  <g opacity="0.15">
    <!-- TW squares -->
    <rect x="50" y="50" width="60" height="60" rx="8" fill="#1e3a5f"/>
    <rect x="1090" y="50" width="60" height="60" rx="8" fill="#1e3a5f"/>
    <rect x="50" y="520" width="60" height="60" rx="8" fill="#1e3a5f"/>
    <rect x="1090" y="520" width="60" height="60" rx="8" fill="#1e3a5f"/>
    <!-- DW squares -->
    <rect x="150" y="150" width="50" height="50" rx="6" fill="#3d5a80"/>
    <rect x="1000" y="150" width="50" height="50" rx="6" fill="#3d5a80"/>
    <rect x="150" y="430" width="50" height="50" rx="6" fill="#3d5a80"/>
    <rect x="1000" y="430" width="50" height="50" rx="6" fill="#3d5a80"/>
    <!-- TL squares -->
    <rect x="230" y="80" width="45" height="45" rx="5" fill="#c4a882"/>
    <rect x="925" y="80" width="45" height="45" rx="5" fill="#c4a882"/>
    <rect x="230" y="505" width="45" height="45" rx="5" fill="#c4a882"/>
    <rect x="925" y="505" width="45" height="45" rx="5" fill="#c4a882"/>
  </g>
  
  <!-- Skrabble Keeper Logo (centered and scaled) -->
  <g transform="translate(200, 140) scale(1.0)">
    <!-- K Tile (bottom) -->
    <rect x="143.731" y="163.939" width="178.055" height="178.055" rx="18.5" transform="rotate(1.40259 143.731 163.939)" fill="#F5F0E8" stroke="#192B42" stroke-width="3"/>
    <path d="M195.865 301.042L197.432 207.964L217.111 208.295L216.42 249.335L217.647 249.356L251.834 208.88L275.421 209.277L240.179 250.371L274.263 302.362L250.721 301.965L225.869 263.269L215.989 274.922L215.544 301.373L195.865 301.042Z" fill="#192B42"/>
    <path d="M301.242 326.329C300.238 326.303 299.349 326.094 298.573 325.704C297.802 325.314 297.195 324.789 296.753 324.128C296.311 323.467 296.092 322.718 296.096 321.88L299.077 321.959C299.096 322.523 299.32 322.986 299.751 323.348C300.182 323.71 300.7 323.899 301.306 323.915C301.789 323.928 302.218 323.833 302.592 323.63C302.972 323.422 303.271 323.129 303.49 322.752C303.713 322.369 303.831 321.927 303.845 321.425C303.858 320.914 303.761 320.462 303.554 320.068C303.351 319.674 303.064 319.363 302.691 319.135C302.318 318.908 301.888 318.785 301.4 318.767C300.974 318.756 300.558 318.832 300.151 318.997C299.749 319.161 299.432 319.392 299.202 319.689L296.482 319.126L297.374 311.477L306.263 311.714L306.196 314.227L299.842 314.058L299.369 317.69L299.454 317.692C299.719 317.339 300.113 317.051 300.635 316.828C301.157 316.605 301.738 316.502 302.377 316.519C303.253 316.543 304.028 316.77 304.703 317.2C305.379 317.63 305.906 318.21 306.284 318.94C306.663 319.665 306.837 320.494 306.807 321.426C306.786 322.406 306.536 323.271 306.056 324.021C305.582 324.766 304.929 325.345 304.099 325.759C303.273 326.168 302.321 326.358 301.242 326.329Z" fill="black"/>
    <!-- S Tile (top) -->
    <rect x="9.93789" y="21.3732" width="178.055" height="178.055" rx="18.5" transform="rotate(-3.68228 9.93789 21.3732)" fill="#F5F0E8" stroke="#192B42" stroke-width="3"/>
    <path d="M119.623 83.5403C118.997 79.9093 117.236 77.1802 114.34 75.3533C111.443 73.5264 107.638 72.7827 102.923 73.1224C99.7189 73.3531 97.0464 74.0014 94.9054 75.0671C92.7621 76.1025 91.1577 77.4485 90.0921 79.1051C89.0568 80.7595 88.611 82.5842 88.7547 84.579C88.814 86.2457 89.2661 87.6715 90.1109 88.8562C90.986 90.0388 92.1363 91.0345 93.5617 91.8433C94.985 92.6218 96.6122 93.2794 98.4433 93.8159C100.272 94.3221 102.216 94.729 104.273 95.0365L112.759 96.4304C116.875 97.0454 120.679 97.9866 124.173 99.254C127.667 100.521 130.733 102.169 133.37 104.197C136.008 106.225 138.114 108.686 139.69 111.58C141.296 114.472 142.253 117.852 142.562 121.718C142.941 127.403 141.845 132.434 139.274 136.812C136.731 141.157 132.853 144.672 127.638 147.357C122.452 150.009 116.08 151.607 108.524 152.151C101.028 152.691 94.4172 152.013 88.6904 150.117C82.9938 148.218 78.4268 145.129 74.9892 140.85C71.5797 136.538 69.5588 131.048 68.9266 124.379L87.9228 123.011C88.3586 126.109 89.4375 128.644 91.1594 130.616C92.9093 132.556 95.1523 133.959 97.8883 134.825C100.652 135.659 103.727 135.954 107.112 135.71C110.437 135.471 113.288 134.779 115.667 133.636C118.076 132.49 119.898 131.007 121.134 129.186C122.37 127.365 122.908 125.337 122.746 123.1C122.596 121.014 121.85 119.306 120.509 117.975C119.198 116.641 117.327 115.561 114.898 114.733C112.499 113.903 109.577 113.202 106.133 112.63L95.8401 110.82C87.8747 109.479 81.4793 106.947 76.6539 103.224C71.8284 99.5003 69.1837 94.2069 68.7197 87.3438C68.2845 81.7241 69.4269 76.7048 72.1467 72.2859C74.8968 67.8648 78.8467 64.2838 83.9964 61.5431C89.1462 58.8024 95.1062 57.1882 101.877 56.7005C108.768 56.2042 114.867 56.9497 120.175 58.9371C125.514 60.9223 129.77 63.9121 132.944 67.9065C136.118 71.9009 137.949 76.6604 138.438 82.185L119.623 83.5403Z" fill="#192B42"/>
    <path d="M181.32 154.385L182.223 168.903L179.154 169.093L178.432 157.489L178.347 157.495L175.152 159.786L174.983 157.063L178.435 154.565L181.32 154.385Z" fill="black"/>
    <!-- KRABBLE text -->
    <path d="M212.561 150.999V57.9084H232.243V98.9538H233.47L266.97 57.9084H290.561L256.016 99.5902L290.97 150.999H267.425L241.925 112.727L232.243 124.545V150.999H212.561ZM300.811 150.999V57.9084H337.538C344.569 57.9084 350.569 59.1659 355.538 61.6811C360.538 64.1659 364.341 67.6962 366.947 72.272C369.584 76.8174 370.902 82.1659 370.902 88.3174C370.902 94.4993 369.569 99.8174 366.902 104.272C364.235 108.696 360.372 112.09 355.311 114.454C350.281 116.817 344.19 117.999 337.038 117.999H312.447V102.181H333.857C337.614 102.181 340.735 101.666 343.22 100.636C345.705 99.6053 347.554 98.0599 348.766 95.9993C350.008 93.9387 350.629 91.3781 350.629 88.3174C350.629 85.2265 350.008 82.6205 348.766 80.4993C347.554 78.3781 345.69 76.772 343.175 75.6811C340.69 74.5599 337.554 73.9993 333.766 73.9993H320.493V150.999H300.811ZM351.084 108.636L374.22 150.999H352.493L329.857 108.636H351.084ZM400.857 150.999H379.766L411.902 57.9084H437.266L469.357 150.999H448.266L424.947 79.1811H424.22L400.857 150.999ZM399.538 114.408H449.357V129.772H399.538V114.408ZM480.561 150.999V57.9084H517.834C524.682 57.9084 530.394 58.9235 534.97 60.9538C539.546 62.9841 542.985 65.8023 545.288 69.4084C547.591 72.9841 548.743 77.1053 548.743 81.772C548.743 85.4084 548.016 88.6053 546.561 91.3629C545.107 94.0902 543.107 96.3326 540.561 98.0902C538.046 99.8174 535.167 101.045 531.925 101.772V102.681C535.47 102.833 538.788 103.833 541.879 105.681C545 107.53 547.531 110.12 549.47 113.454C551.41 116.757 552.379 120.696 552.379 125.272C552.379 130.211 551.152 134.62 548.697 138.499C546.273 142.348 542.682 145.393 537.925 147.636C533.167 149.878 527.304 150.999 520.334 150.999H480.561ZM500.243 134.908H516.288C521.773 134.908 525.773 133.863 528.288 131.772C530.804 129.651 532.061 126.833 532.061 123.317C532.061 120.742 531.44 118.469 530.197 116.499C528.955 114.53 527.182 112.984 524.879 111.863C522.607 110.742 519.894 110.181 516.743 110.181H500.243V134.908ZM500.243 96.8629H514.834C517.531 96.8629 519.925 96.3932 522.016 95.4538C524.137 94.4841 525.804 93.1205 527.016 91.3629C528.258 89.6053 528.879 87.4993 528.879 85.0447C528.879 81.6811 527.682 78.969 525.288 76.9084C522.925 74.8477 519.561 73.8174 515.197 73.8174H500.243V96.8629ZM565.186 150.999V57.9084H602.459C609.307 57.9084 615.019 58.9235 619.595 60.9538C624.171 62.9841 627.61 65.8023 629.913 69.4084C632.216 72.9841 633.368 77.1053 633.368 81.772C633.368 85.4084 632.641 88.6053 631.186 91.3629C629.732 94.0902 627.732 96.3326 625.186 98.0902C622.671 99.8174 619.792 101.045 616.55 101.772V102.681C620.095 102.833 623.413 103.833 626.504 105.681C629.625 107.53 632.156 110.12 634.095 113.454C636.035 116.757 637.004 120.696 637.004 125.272C637.004 130.211 635.777 134.62 633.322 138.499C630.898 142.348 627.307 145.393 622.55 147.636C617.792 149.878 611.929 150.999 604.959 150.999H565.186ZM584.868 134.908H600.913C606.398 134.908 610.398 133.863 612.913 131.772C615.429 129.651 616.686 126.833 616.686 123.317C616.686 120.742 616.065 118.469 614.822 116.499C613.58 114.53 611.807 112.984 609.504 111.863C607.232 110.742 604.519 110.181 601.368 110.181H584.868V134.908ZM584.868 96.8629H599.459C602.156 96.8629 604.55 96.3932 606.641 95.4538C608.762 94.4841 610.429 93.1205 611.641 91.3629C612.883 89.6053 613.504 87.4993 613.504 85.0447C613.504 81.6811 612.307 78.969 609.913 76.9084C607.55 74.8477 604.186 73.8174 599.822 73.8174H584.868V96.8629ZM649.811 150.999V57.9084H669.493V134.772H709.402V150.999H649.811ZM722.436 150.999V57.9084H785.163V74.1356H742.118V96.3174H781.936V112.545H742.118V134.772H785.345V150.999H722.436Z" fill="#192B42"/>
    <!-- EEPER text -->
    <path d="M334.925 300.302V207.211H397.653V223.439H354.607V245.62H394.425V261.848H354.607V284.075H397.835V300.302H334.925ZM413.3 300.302V207.211H476.028V223.439H432.982V245.62H472.8V261.848H432.982V284.075H476.21V300.302H413.3ZM491.675 300.302V207.211H528.403C535.463 207.211 541.479 208.56 546.448 211.257C551.418 213.923 555.206 217.636 557.812 222.393C560.448 227.12 561.766 232.575 561.766 238.757C561.766 244.939 560.433 250.393 557.766 255.12C555.1 259.848 551.236 263.529 546.175 266.166C541.145 268.802 535.054 270.12 527.903 270.12H504.494V254.348H524.721C528.509 254.348 531.63 253.696 534.085 252.393C536.569 251.06 538.418 249.226 539.63 246.893C540.872 244.529 541.494 241.817 541.494 238.757C541.494 235.666 540.872 232.969 539.63 230.666C538.418 228.332 536.569 226.529 534.085 225.257C531.6 223.954 528.448 223.302 524.63 223.302H511.357V300.302H491.675ZM574.55 300.302V207.211H637.278V223.439H594.232V245.62H634.05V261.848H594.232V284.075H637.46V300.302H574.55ZM652.925 300.302V207.211H689.653C696.683 207.211 702.683 208.469 707.653 210.984C712.653 213.469 716.456 216.999 719.062 221.575C721.698 226.12 723.016 231.469 723.016 237.62C723.016 243.802 721.683 249.12 719.016 253.575C716.35 257.999 712.486 261.393 707.425 263.757C702.395 266.12 696.304 267.302 689.153 267.302H664.562V251.484H685.971C689.729 251.484 692.85 250.969 695.335 249.939C697.819 248.908 699.668 247.363 700.88 245.302C702.122 243.242 702.744 240.681 702.744 237.62C702.744 234.529 702.122 231.923 700.88 229.802C699.668 227.681 697.804 226.075 695.289 224.984C692.804 223.863 689.668 223.302 685.88 223.302H672.607V300.302H652.925ZM703.198 257.939L726.335 300.302H704.607L681.971 257.939H703.198Z" fill="#192B42"/>
  </g>
  
  <!-- Tagline -->
  <text x="600" y="510" font-family="system-ui, -apple-system, sans-serif" font-size="28" fill="#1e3a5f" opacity="0.7" text-anchor="middle">Simple Scrabble Score Tracker with Interactive Board View</text>
  
  <!-- Features -->
  <text x="600" y="555" font-family="system-ui, -apple-system, sans-serif" font-size="22" fill="#3d5a80" text-anchor="middle">
    <tspan>✓ Up to 4 Players</tspan>
    <tspan dx="40">✓ Auto Score Calculation</tspan>
  </text>
  
  <!-- URL -->
  <text x="600" y="600" font-family="system-ui, -apple-system, sans-serif" font-size="24" fill="#1e3a5f" opacity="0.5" text-anchor="middle">skrabblekeeper.com</text>
</svg>
