<svg width="1200" height="630" viewBox="0 0 1200 630" fill="none" xmlns="http://www.w3.org/2000/svg">
  <!-- Background -->
  <rect width="1200" height="630" fill="#f5f0e8"/>
  
  <!-- Decorative board squares pattern -->
  <g opacity="0.15">
    <!-- TW squares -->
    <rect x="50" y="50" width="60" height="60" rx="8" fill="#1e3a5f"/>
    <rect x="1090" y="50" width="60" height="60" rx="8" fill="#1e3a5f"/>
    <rect x="50" y="520" width="60" height="60" rx="8" fill="#1e3a5f"/>
    <rect x="1090" y="520" width="60" height="60" rx="8" fill="#1e3a5f"/>
    <!-- DW squares -->
    <rect x="150" y="150" width="50" height="50" rx="6" fill="#3d5a80"/>
    <rect x="1000" y="150" width="50" height="50" rx="6" fill="#3d5a80"/>
    <rect x="150" y="430" width="50" height="50" rx="6" fill="#3d5a80"/>
    <rect x="1000" y="430" width="50" height="50" rx="6" fill="#3d5a80"/>
    <!-- TL squares -->
    <rect x="230" y="80" width="45" height="45" rx="5" fill="#c4a882"/>
    <rect x="925" y="80" width="45" height="45" rx="5" fill="#c4a882"/>
    <rect x="230" y="505" width="45" height="45" rx="5" fill="#c4a882"/>
    <rect x="925" y="505" width="45" height="45" rx="5" fill="#c4a882"/>
  </g>
  
  <!-- S Tile -->
  <g transform="translate(280, 140)">
    <rect x="0" y="0" width="140" height="140" rx="14" fill="#faf8f5" stroke="#1e3a5f" stroke-width="3"/>
    <text x="70" y="105" font-family="system-ui, -apple-system, sans-serif" font-size="80" font-weight="bold" fill="#1e3a5f" text-anchor="middle">S</text>
    <text x="120" y="125" font-family="system-ui, -apple-system, sans-serif" font-size="24" fill="#1e3a5f">1</text>
  </g>
  
  <!-- K Tile -->
  <g transform="translate(280, 350)">
    <rect x="0" y="0" width="140" height="140" rx="14" fill="#faf8f5" stroke="#1e3a5f" stroke-width="3"/>
    <text x="70" y="105" font-family="system-ui, -apple-system, sans-serif" font-size="80" font-weight="bold" fill="#1e3a5f" text-anchor="middle">K</text>
    <text x="120" y="125" font-family="system-ui, -apple-system, sans-serif" font-size="24" fill="#1e3a5f">5</text>
  </g>
  
  <!-- Main text -->
  <text x="460" y="230" font-family="system-ui, -apple-system, sans-serif" font-size="72" font-weight="bold" fill="#1e3a5f">KRABBLE</text>
  <text x="460" y="320" font-family="system-ui, -apple-system, sans-serif" font-size="72" font-weight="bold" fill="#1e3a5f">EEPER</text>
  
  <!-- Tagline -->
  <text x="460" y="400" font-family="system-ui, -apple-system, sans-serif" font-size="32" fill="#1e3a5f" opacity="0.7">Simple Scrabble Score Tracker</text>
  <text x="460" y="445" font-family="system-ui, -apple-system, sans-serif" font-size="32" fill="#1e3a5f" opacity="0.7">with Interactive Board View</text>
  
  <!-- Features -->
  <g transform="translate(460, 490)">
    <text font-family="system-ui, -apple-system, sans-serif" font-size="22" fill="#3d5a80">
      <tspan>✓ Up to 4 Players</tspan>
      <tspan x="250">✓ Auto Score Calc</tspan>
      <tspan x="500">✓ Works Offline</tspan>
    </text>
  </g>
  
  <!-- URL -->
  <text x="600" y="590" font-family="system-ui, -apple-system, sans-serif" font-size="24" fill="#1e3a5f" opacity="0.5" text-anchor="middle">skrabblekeeper.vercel.app</text>
</svg>

